<?xml version="1.0" encoding="UTF-8"?>
<svg xmlns="http://www.w3.org/2000/svg" xmlns:xlink="http://www.w3.org/1999/xlink" width="719pt" height="434pt" viewBox="0 0 719 434" version="1.1">
<defs>
<clipPath id="clip1">
  <path d="M 473 69 L 475 69 L 475 400.402344 L 473 400.402344 Z "/>
</clipPath>
<clipPath id="clip2">
  <path d="M 257.070312 69 L 260 69 L 260 400.402344 L 257.070312 400.402344 Z "/>
</clipPath>
<clipPath id="clip3">
  <path d="M 43.21875 25 L 716.480469 25 L 716.480469 400.402344 L 43.21875 400.402344 Z "/>
</clipPath>
</defs>
<g id="surface1">
<path style="fill:none;stroke-width:0.3985;stroke-linecap:butt;stroke-linejoin:miter;stroke:rgb(74.901961%,74.901961%,74.901961%);stroke-opacity:1;stroke-dasharray:2.98883,2.98883;stroke-miterlimit:10;" d="M 27.028586 -0.000723502 L 27.028586 199.657226 M 54.055655 -0.000723502 L 54.055655 199.657226 M 81.082724 -0.000723502 L 81.082724 199.657226 M 108.111753 -0.000723502 L 108.111753 199.657226 M 135.138822 -0.000723502 L 135.138822 199.657226 M 162.165891 -0.000723502 L 162.165891 199.657226 M 189.19688 -0.000723502 L 189.19688 199.657226 M 216.223949 -0.000723502 L 216.223949 199.657226 M 243.251018 -0.000723502 L 243.251018 199.657226 M 270.278086 -0.000723502 L 270.278086 199.657226 M 297.307115 -0.000723502 L 297.307115 199.657226 M 324.334184 -0.000723502 L 324.334184 199.657226 " transform="matrix(1.992794,0,0,-1.994485,43.215726,400.400901)"/>
<g clip-path="url(#clip1)" clip-rule="nonzero">
<path style="fill:none;stroke-width:0.79701;stroke-linecap:butt;stroke-linejoin:miter;stroke:rgb(0%,0%,0%);stroke-opacity:1;stroke-miterlimit:10;" d="M 216.223949 -0.000723502 L 216.223949 165.59847 " transform="matrix(1.992794,0,0,-1.994485,43.215726,400.400901)"/>
</g>
<g clip-path="url(#clip2)" clip-rule="nonzero">
<path style="fill:none;stroke-width:0.79701;stroke-linecap:butt;stroke-linejoin:miter;stroke:rgb(0%,0%,0%);stroke-opacity:1;stroke-miterlimit:10;" d="M 108.111753 -0.000723502 L 108.111753 165.59847 " transform="matrix(1.992794,0,0,-1.994485,43.215726,400.400901)"/>
</g>
<path style="fill:none;stroke-width:1.59404;stroke-linecap:butt;stroke-linejoin:miter;stroke:rgb(0%,0%,0%);stroke-opacity:1;stroke-miterlimit:10;" d="M 146.592199 82.210336 L 285.853738 82.210336 " transform="matrix(1.992794,0,0,-1.994485,43.215726,400.400901)"/>
<path style=" stroke:none;fill-rule:nonzero;fill:rgb(0%,0%,0%);fill-opacity:1;" d="M 321.765625 236.433594 C 325.789062 237.1875 332.328125 239.449219 336.851562 242.097656 L 336.851562 230.769531 C 332.328125 233.410156 325.789062 235.675781 321.765625 236.433594 "/>
<path style=" stroke:none;fill-rule:nonzero;fill:rgb(0%,0%,0%);fill-opacity:1;" d="M 626.445312 236.433594 C 622.421875 235.675781 615.882812 233.410156 611.351562 230.769531 L 611.351562 242.097656 C 615.882812 239.449219 622.421875 237.1875 626.445312 236.433594 "/>
<g clip-path="url(#clip3)" clip-rule="nonzero">
<path style="fill:none;stroke-width:1.59404;stroke-linecap:butt;stroke-linejoin:miter;stroke:rgb(89.019608%,0%,0%);stroke-opacity:1;stroke-miterlimit:10;" d="M 0.00151739 3.034991 L 3.275031 3.422779 L 6.552465 3.851696 L 9.825978 4.327618 L 13.103412 4.856419 L 16.380846 5.434184 L 19.65436 6.074622 L 22.931794 6.773816 L 26.205307 7.543516 L 29.482741 8.383724 L 32.760175 9.300313 L 36.033689 10.297203 L 39.309163 11.382226 L 42.582676 12.5593 L 45.86011 13.828424 L 49.137544 15.199392 L 52.411058 16.668286 L 55.688491 18.258608 L 58.962005 19.964484 L 62.239439 21.789829 L 65.516873 23.726811 L 68.790386 25.796972 L 72.06782 27.984645 L 75.341334 30.321166 L 78.618768 32.788908 L 81.896202 35.374161 L 85.169715 38.110221 L 88.447149 40.973585 L 91.720663 43.987756 L 94.998097 47.121396 L 98.275531 50.386258 L 101.549044 53.7843 L 104.826478 57.297894 L 108.099992 60.940751 L 111.377426 64.68741 L 114.6529 68.531995 L 117.926413 72.488217 L 121.203847 76.514945 L 124.477361 80.645475 L 127.754795 84.821051 L 131.032228 89.043631 L 134.305742 93.317134 L 137.583176 97.610221 L 140.856689 101.918977 L 144.134123 106.210106 L 147.411557 110.499276 L 150.685071 114.745359 L 153.962505 118.918977 L 157.236018 123.03188 L 160.513452 127.054691 L 163.790886 130.969783 L 167.0644 134.741903 L 170.341834 138.374968 L 173.615347 141.855267 L 176.892781 145.149507 L 180.170215 148.249853 L 183.443729 151.128885 L 186.721163 153.800313 L 189.992716 156.219092 L 193.27015 158.391097 L 196.547584 160.292825 L 199.821098 161.918401 L 203.098531 163.261949 L 206.372045 164.319553 L 209.649479 165.085336 L 212.926913 165.53188 L 216.200426 165.657226 L 219.47786 165.547548 L 222.751374 165.085336 L 226.028808 164.335221 L 229.306242 163.277618 L 232.579755 161.934069 L 235.857189 160.31241 L 239.130703 158.422433 L 242.408137 156.250429 L 245.685571 153.83165 L 248.959084 151.179806 L 252.236518 148.296857 L 255.510032 145.19847 L 258.787466 141.902272 L 262.0649 138.421972 L 265.338413 134.792825 L 268.613887 131.014829 L 271.887401 127.105613 L 275.164834 123.078885 L 278.442268 118.96794 L 281.715782 114.792364 L 284.993216 110.554115 L 288.266729 106.276696 L 291.544163 101.96794 L 294.821597 97.676811 L 298.095111 93.371972 L 301.372545 89.110221 L 304.646058 84.868055 L 307.923492 80.690521 L 311.200926 76.585452 L 314.47444 72.543055 L 317.751874 68.598585 L 321.025387 64.738332 L 324.302821 60.991673 " transform="matrix(1.992794,0,0,-1.994485,43.215726,400.400901)"/>
<path style="fill:none;stroke-width:1.59404;stroke-linecap:butt;stroke-linejoin:miter;stroke:rgb(27.843137%,45.882353%,54.901961%);stroke-opacity:1;stroke-miterlimit:10;" d="M 0.00151739 60.940751 L 3.275031 64.703078 L 6.552465 68.547664 L 9.825978 72.507802 L 13.103412 76.53453 L 16.380846 80.661143 L 19.65436 84.836719 L 22.931794 89.063217 L 26.205307 93.336719 L 29.482741 97.629806 L 32.760175 101.934645 L 36.033689 106.225774 L 39.309163 110.518862 L 42.582676 114.745359 L 45.86011 118.938562 L 49.137544 123.047548 L 52.411058 127.054691 L 55.688491 130.969783 L 58.962005 134.761488 L 62.239439 138.386719 L 65.516873 141.867018 L 68.790386 145.167134 L 72.06782 148.261604 L 75.341334 151.14847 L 78.618768 153.800313 L 81.896202 156.219092 L 85.169715 158.391097 L 88.447149 160.292825 L 91.720663 161.918401 L 94.998097 163.261949 L 98.275531 164.319553 L 101.549044 165.085336 L 104.826478 165.53188 L 108.099992 165.657226 L 111.377426 165.53188 L 114.6529 165.085336 L 117.926413 164.319553 L 121.203847 163.277618 L 124.477361 161.934069 L 127.754795 160.31241 L 131.032228 158.406765 L 134.305742 156.23476 L 137.583176 153.83165 L 140.856689 151.164138 L 144.134123 148.281189 L 147.411557 145.182802 L 150.685071 141.886604 L 153.962505 138.421972 L 157.236018 134.777157 L 160.513452 130.999161 L 163.790886 127.089945 L 167.0644 123.078885 L 170.341834 118.96794 L 173.615347 114.776696 L 176.892781 110.53453 L 180.170215 106.261028 L 183.443729 101.952272 L 186.721163 97.661143 L 189.992716 93.352387 L 193.27015 89.094553 L 196.547584 84.852387 L 199.821098 80.676811 L 203.098531 76.565866 L 206.372045 72.52347 L 209.649479 68.582917 L 212.926913 64.718747 L 216.200426 60.976005 L 219.47786 57.327272 L 222.751374 53.815636 L 226.028808 50.421512 L 229.306242 47.15665 L 232.579755 44.007341 L 235.857189 41.012756 L 239.130703 38.145475 L 242.408137 35.409415 L 245.685571 32.808493 L 248.959084 30.340751 L 252.236518 28.015982 L 255.510032 25.812641 L 258.787466 23.742479 L 262.0649 21.805498 L 265.338413 19.980152 L 268.613887 18.274276 L 271.887401 16.683954 L 275.164834 15.21506 L 278.442268 13.840175 L 281.715782 12.571051 L 284.993216 11.393977 L 288.266729 10.308954 L 291.544163 9.308147 L 294.821597 8.395475 L 298.095111 7.55135 L 301.372545 6.78165 L 304.646058 6.082456 L 307.923492 5.442018 L 311.200926 4.860336 L 314.47444 4.331535 L 317.751874 3.855613 L 321.025387 3.426696 L 324.302821 3.038908 " transform="matrix(1.992794,0,0,-1.994485,43.215726,400.400901)"/>
</g>
<path style=" stroke:none;fill-rule:nonzero;fill:rgb(89.019608%,0%,0%);fill-opacity:1;" d="M 416.867188 17.25 C 417.363281 18.746094 418.019531 20.894531 419.292969 24.417969 C 421.101562 29.277344 421.878906 31.054688 423.621094 33.765625 C 424.027344 34.359375 424.058594 34.390625 424.339844 34.390625 C 424.710938 34.390625 425.335938 34.046875 425.648438 33.828125 C 426.050781 33.453125 426.082031 33.421875 426.394531 32.019531 C 428.105469 24.480469 430.253906 16.65625 430.847656 15.347656 C 430.878906 15.285156 431.4375 14.195312 434.957031 14.132812 C 435.515625 14.101562 436.078125 12.574219 436.078125 11.953125 C 436.078125 11.515625 435.890625 11.515625 435.484375 11.515625 C 432.652344 11.515625 431.34375 12.699219 431.003906 13.074219 C 430.222656 14.101562 429.539062 16.191406 428.199219 20.957031 C 427.203125 24.636719 426.300781 28.34375 425.398438 32.050781 C 423.839844 29.652344 422.9375 27.410156 421.566406 23.730469 C 420.074219 19.648438 419.140625 16.6875 418.390625 14.101562 C 418.203125 13.542969 418.171875 13.511719 417.925781 13.511719 C 417.863281 13.511719 417.300781 13.511719 416.460938 14.195312 C 416.179688 14.445312 416.148438 14.695312 416.117188 15.003906 C 415.308594 22.640625 412.632812 30.152344 411.851562 31.523438 C 411.632812 31.957031 411.292969 32.457031 410.730469 32.457031 C 410.421875 32.457031 409.332031 32.332031 408.582031 31.648438 C 408.425781 31.523438 408.367188 31.523438 408.335938 31.523438 C 407.898438 31.523438 407.277344 32.957031 407.277344 33.640625 C 407.277344 34.546875 409.019531 35.105469 409.828125 35.105469 C 411.664062 35.105469 413.128906 31.054688 413.566406 29.746094 C 415.433594 24.574219 416.304688 20.304688 416.867188 17.25 Z "/>
<path style=" stroke:none;fill-rule:nonzero;fill:rgb(89.019608%,0%,0%);fill-opacity:1;" d="M 445.066406 40.621094 C 445.066406 40.527344 445.066406 40.464844 444.597656 40 C 441.734375 37.101562 440.144531 32.394531 440.144531 26.535156 C 440.144531 20.988281 441.484375 16.222656 444.785156 12.855469 C 445.066406 12.574219 445.066406 12.542969 445.066406 12.449219 C 445.066406 12.261719 444.941406 12.230469 444.816406 12.230469 C 444.441406 12.230469 442.105469 14.289062 440.707031 17.09375 C 439.242188 19.960938 438.589844 23.046875 438.589844 26.535156 C 438.589844 29.09375 438.992188 32.488281 440.488281 35.574219 C 442.167969 39 444.503906 40.839844 444.816406 40.839844 C 444.941406 40.839844 445.066406 40.808594 445.066406 40.621094 Z "/>
<path style=" stroke:none;fill-rule:nonzero;fill:rgb(89.019608%,0%,0%);fill-opacity:1;" d="M 455.203125 23.359375 C 456.605469 22.578125 458.691406 21.269531 458.691406 18.839844 C 458.691406 16.378906 456.292969 14.664062 453.679688 14.664062 C 450.84375 14.664062 448.601562 16.75 448.601562 19.335938 C 448.601562 20.304688 448.914062 21.300781 449.691406 22.265625 C 450.003906 22.640625 450.035156 22.671875 452.058594 24.074219 C 449.289062 25.351562 447.855469 27.253906 447.855469 29.339844 C 447.855469 32.394531 450.71875 34.265625 453.648438 34.265625 C 456.824219 34.265625 459.46875 31.925781 459.46875 28.9375 C 459.46875 26.007812 457.414062 24.730469 455.203125 23.359375 Z M 451.3125 20.769531 C 450.9375 20.523438 449.785156 19.773438 449.785156 18.371094 C 449.785156 16.5 451.71875 15.347656 453.648438 15.347656 C 455.703125 15.347656 457.539062 16.8125 457.539062 18.871094 C 457.539062 20.617188 456.261719 22.019531 454.613281 22.953125 Z M 452.652344 24.449219 L 456.109375 26.722656 C 456.855469 27.222656 458.164062 28.09375 458.164062 29.839844 C 458.164062 32.019531 455.953125 33.484375 453.679688 33.484375 C 451.25 33.484375 449.164062 31.742188 449.164062 29.339844 C 449.164062 27.128906 450.78125 25.320312 452.652344 24.449219 Z "/>
<path style=" stroke:none;fill-rule:nonzero;fill:rgb(89.019608%,0%,0%);fill-opacity:1;" d="M 473.46875 24.511719 C 473.46875 22.140625 473.34375 19.835938 472.316406 17.65625 C 471.132812 15.285156 469.078125 14.664062 467.675781 14.664062 C 466.027344 14.664062 463.96875 15.472656 462.941406 17.839844 C 462.132812 19.648438 461.851562 21.425781 461.851562 24.511719 C 461.851562 27.285156 462.039062 29.371094 463.066406 31.398438 C 464.1875 33.578125 466.148438 34.265625 467.644531 34.265625 C 470.136719 34.265625 471.566406 32.800781 472.378906 31.117188 C 473.40625 28.96875 473.46875 26.164062 473.46875 24.511719 Z M 467.644531 33.703125 C 466.742188 33.703125 464.875 33.175781 464.34375 30.058594 C 464 28.34375 464 26.164062 464 24.167969 C 464 21.832031 464 19.710938 464.46875 18.027344 C 464.96875 16.097656 466.429688 15.222656 467.644531 15.222656 C 468.734375 15.222656 470.386719 15.878906 470.945312 18.339844 C 471.289062 19.960938 471.289062 22.234375 471.289062 24.167969 C 471.289062 26.101562 471.289062 28.25 470.976562 29.996094 C 470.445312 33.144531 468.640625 33.703125 467.644531 33.703125 Z "/>
<path style=" stroke:none;fill-rule:nonzero;fill:rgb(89.019608%,0%,0%);fill-opacity:1;" d="M 480.242188 33.796875 C 480.242188 32.019531 479.648438 30.898438 478.527344 30.898438 C 477.6875 30.898438 477.15625 31.523438 477.15625 32.269531 C 477.15625 33.050781 477.6875 33.671875 478.558594 33.671875 C 478.996094 33.671875 479.308594 33.484375 479.460938 33.332031 C 479.554688 33.238281 479.585938 33.238281 479.617188 33.238281 C 479.679688 33.238281 479.679688 33.640625 479.679688 33.796875 C 479.679688 35.605469 478.933594 37.351562 477.65625 38.660156 C 477.5625 38.722656 477.53125 38.785156 477.53125 38.910156 C 477.53125 39.0625 477.65625 39.1875 477.8125 39.1875 C 478.0625 39.1875 480.242188 37.070312 480.242188 33.796875 Z "/>
<path style=" stroke:none;fill-rule:nonzero;fill:rgb(89.019608%,0%,0%);fill-opacity:1;" d="M 495.75 23.359375 C 497.152344 22.578125 499.238281 21.269531 499.238281 18.839844 C 499.238281 16.378906 496.839844 14.664062 494.222656 14.664062 C 491.390625 14.664062 489.148438 16.75 489.148438 19.335938 C 489.148438 20.304688 489.460938 21.300781 490.238281 22.265625 C 490.550781 22.640625 490.582031 22.671875 492.605469 24.074219 C 489.832031 25.351562 488.402344 27.253906 488.402344 29.339844 C 488.402344 32.394531 491.265625 34.265625 494.191406 34.265625 C 497.367188 34.265625 500.015625 31.925781 500.015625 28.9375 C 500.015625 26.007812 497.960938 24.730469 495.75 23.359375 Z M 491.855469 20.769531 C 491.484375 20.523438 490.332031 19.773438 490.332031 18.371094 C 490.332031 16.5 492.261719 15.347656 494.191406 15.347656 C 496.246094 15.347656 498.085938 16.8125 498.085938 18.871094 C 498.085938 20.617188 496.808594 22.019531 495.15625 22.953125 Z M 493.195312 24.449219 L 496.652344 26.722656 C 497.398438 27.222656 498.707031 28.09375 498.707031 29.839844 C 498.707031 32.019531 496.496094 33.484375 494.222656 33.484375 C 491.796875 33.484375 489.707031 31.742188 489.707031 29.339844 C 489.707031 27.128906 491.328125 25.320312 493.195312 24.449219 Z "/>
<path style=" stroke:none;fill-rule:nonzero;fill:rgb(89.019608%,0%,0%);fill-opacity:1;" d="M 514.011719 24.511719 C 514.011719 22.140625 513.886719 19.835938 512.859375 17.65625 C 511.675781 15.285156 509.621094 14.664062 508.222656 14.664062 C 506.570312 14.664062 504.515625 15.472656 503.488281 17.839844 C 502.679688 19.648438 502.398438 21.425781 502.398438 24.511719 C 502.398438 27.285156 502.585938 29.371094 503.613281 31.398438 C 504.734375 33.578125 506.695312 34.265625 508.191406 34.265625 C 510.679688 34.265625 512.113281 32.800781 512.921875 31.117188 C 513.949219 28.96875 514.011719 26.164062 514.011719 24.511719 Z M 508.191406 33.703125 C 507.285156 33.703125 505.417969 33.175781 504.890625 30.058594 C 504.546875 28.34375 504.546875 26.164062 504.546875 24.167969 C 504.546875 21.832031 504.546875 19.710938 505.015625 18.027344 C 505.511719 16.097656 506.976562 15.222656 508.191406 15.222656 C 509.28125 15.222656 510.929688 15.878906 511.492188 18.339844 C 511.832031 19.960938 511.832031 22.234375 511.832031 24.167969 C 511.832031 26.101562 511.832031 28.25 511.519531 29.996094 C 510.992188 33.144531 509.1875 33.703125 508.191406 33.703125 Z "/>
<path style=" stroke:none;fill-rule:nonzero;fill:rgb(89.019608%,0%,0%);fill-opacity:1;" d="M 528.007812 24.511719 C 528.007812 22.140625 527.886719 19.835938 526.859375 17.65625 C 525.675781 15.285156 523.621094 14.664062 522.21875 14.664062 C 520.566406 14.664062 518.511719 15.472656 517.484375 17.839844 C 516.675781 19.648438 516.394531 21.425781 516.394531 24.511719 C 516.394531 27.285156 516.582031 29.371094 517.609375 31.398438 C 518.730469 33.578125 520.691406 34.265625 522.1875 34.265625 C 524.679688 34.265625 526.109375 32.800781 526.917969 31.117188 C 527.949219 28.96875 528.007812 26.164062 528.007812 24.511719 Z M 522.1875 33.703125 C 521.285156 33.703125 519.414062 33.175781 518.886719 30.058594 C 518.542969 28.34375 518.542969 26.164062 518.542969 24.167969 C 518.542969 21.832031 518.542969 19.710938 519.011719 18.027344 C 519.507812 16.097656 520.972656 15.222656 522.1875 15.222656 C 523.277344 15.222656 524.925781 15.878906 525.488281 18.339844 C 525.828125 19.960938 525.828125 22.234375 525.828125 24.167969 C 525.828125 26.101562 525.828125 28.25 525.519531 29.996094 C 524.988281 33.144531 523.183594 33.703125 522.1875 33.703125 Z "/>
<path style=" stroke:none;fill-rule:nonzero;fill:rgb(89.019608%,0%,0%);fill-opacity:1;" d="M 537.273438 26.535156 C 537.273438 24.386719 536.992188 20.832031 535.375 17.5 C 533.691406 14.070312 531.359375 12.230469 531.046875 12.230469 C 530.921875 12.230469 530.765625 12.261719 530.765625 12.449219 C 530.765625 12.542969 530.765625 12.574219 531.265625 13.074219 C 534.128906 15.972656 535.71875 20.675781 535.71875 26.535156 C 535.71875 32.082031 534.378906 36.851562 531.078125 40.21875 C 530.765625 40.464844 530.765625 40.527344 530.765625 40.621094 C 530.765625 40.808594 530.921875 40.839844 531.046875 40.839844 C 531.421875 40.839844 533.753906 38.785156 535.15625 35.980469 C 536.621094 33.082031 537.273438 29.996094 537.273438 26.535156 Z "/>
<path style=" stroke:none;fill-rule:nonzero;fill:rgb(27.843137%,45.882353%,54.901961%);fill-opacity:1;" d="M 201.425781 17.25 C 201.921875 18.746094 202.578125 20.894531 203.855469 24.417969 C 205.660156 29.277344 206.4375 31.054688 208.183594 33.765625 C 208.585938 34.359375 208.617188 34.390625 208.898438 34.390625 C 209.273438 34.390625 209.894531 34.046875 210.207031 33.828125 C 210.609375 33.453125 210.640625 33.421875 210.953125 32.019531 C 212.664062 24.480469 214.8125 16.65625 215.40625 15.347656 C 215.4375 15.285156 215.996094 14.195312 219.515625 14.132812 C 220.074219 14.101562 220.636719 12.574219 220.636719 11.953125 C 220.636719 11.515625 220.449219 11.515625 220.046875 11.515625 C 217.210938 11.515625 215.902344 12.699219 215.5625 13.074219 C 214.78125 14.101562 214.097656 16.191406 212.757812 20.957031 C 211.761719 24.636719 210.859375 28.34375 209.957031 32.050781 C 208.398438 29.652344 207.496094 27.410156 206.125 23.730469 C 204.632812 19.648438 203.699219 16.6875 202.949219 14.101562 C 202.765625 13.542969 202.734375 13.511719 202.484375 13.511719 C 202.421875 13.511719 201.859375 13.511719 201.019531 14.195312 C 200.738281 14.445312 200.707031 14.695312 200.675781 15.003906 C 199.867188 22.640625 197.191406 30.152344 196.410156 31.523438 C 196.195312 31.957031 195.851562 32.457031 195.289062 32.457031 C 194.980469 32.457031 193.890625 32.332031 193.140625 31.648438 C 192.988281 31.523438 192.925781 31.523438 192.894531 31.523438 C 192.457031 31.523438 191.835938 32.957031 191.835938 33.640625 C 191.835938 34.546875 193.578125 35.105469 194.386719 35.105469 C 196.226562 35.105469 197.6875 31.054688 198.125 29.746094 C 199.992188 24.574219 200.863281 20.304688 201.425781 17.25 Z "/>
<path style=" stroke:none;fill-rule:nonzero;fill:rgb(27.843137%,45.882353%,54.901961%);fill-opacity:1;" d="M 229.625 40.621094 C 229.625 40.527344 229.625 40.464844 229.15625 40 C 226.292969 37.101562 224.703125 32.394531 224.703125 26.535156 C 224.703125 20.988281 226.042969 16.222656 229.34375 12.855469 C 229.625 12.574219 229.625 12.542969 229.625 12.449219 C 229.625 12.261719 229.5 12.230469 229.375 12.230469 C 229 12.230469 226.667969 14.289062 225.265625 17.09375 C 223.800781 19.960938 223.148438 23.046875 223.148438 26.535156 C 223.148438 29.09375 223.550781 32.488281 225.046875 35.574219 C 226.726562 39 229.0625 40.839844 229.375 40.839844 C 229.5 40.839844 229.625 40.808594 229.625 40.621094 Z "/>
<path style=" stroke:none;fill-rule:nonzero;fill:rgb(27.843137%,45.882353%,54.901961%);fill-opacity:1;" d="M 241.539062 15.035156 C 241.539062 14.507812 241.539062 14.351562 241.164062 14.351562 C 240.914062 14.351562 240.820312 14.351562 240.605469 14.695312 L 232.011719 28.0625 L 232.011719 28.90625 L 239.515625 28.90625 L 239.515625 31.492188 C 239.515625 32.550781 239.453125 32.832031 237.367188 32.832031 L 236.804688 32.832031 L 236.804688 33.671875 C 237.460938 33.609375 239.730469 33.609375 240.511719 33.609375 C 241.320312 33.609375 243.59375 33.609375 244.277344 33.671875 L 244.277344 32.832031 L 243.6875 32.832031 C 241.632812 32.832031 241.539062 32.550781 241.539062 31.492188 L 241.539062 28.90625 L 244.433594 28.90625 L 244.433594 28.0625 L 241.539062 28.0625 Z M 239.671875 17.28125 L 239.671875 28.0625 L 232.726562 28.0625 Z "/>
<path style=" stroke:none;fill-rule:nonzero;fill:rgb(27.843137%,45.882353%,54.901961%);fill-opacity:1;" d="M 258.027344 24.511719 C 258.027344 22.140625 257.902344 19.835938 256.875 17.65625 C 255.691406 15.285156 253.636719 14.664062 252.234375 14.664062 C 250.585938 14.664062 248.53125 15.472656 247.503906 17.839844 C 246.691406 19.648438 246.414062 21.425781 246.414062 24.511719 C 246.414062 27.285156 246.597656 29.371094 247.625 31.398438 C 248.746094 33.578125 250.710938 34.265625 252.203125 34.265625 C 254.695312 34.265625 256.128906 32.800781 256.9375 31.117188 C 257.964844 28.96875 258.027344 26.164062 258.027344 24.511719 Z M 252.203125 33.703125 C 251.300781 33.703125 249.433594 33.175781 248.902344 30.058594 C 248.5625 28.34375 248.5625 26.164062 248.5625 24.167969 C 248.5625 21.832031 248.5625 19.710938 249.027344 18.027344 C 249.527344 16.097656 250.988281 15.222656 252.203125 15.222656 C 253.292969 15.222656 254.945312 15.878906 255.503906 18.339844 C 255.847656 19.960938 255.847656 22.234375 255.847656 24.167969 C 255.847656 26.101562 255.847656 28.25 255.535156 29.996094 C 255.007812 33.144531 253.199219 33.703125 252.203125 33.703125 Z "/>
<path style=" stroke:none;fill-rule:nonzero;fill:rgb(27.843137%,45.882353%,54.901961%);fill-opacity:1;" d="M 264.800781 33.796875 C 264.800781 32.019531 264.207031 30.898438 263.085938 30.898438 C 262.246094 30.898438 261.71875 31.523438 261.71875 32.269531 C 261.71875 33.050781 262.246094 33.671875 263.117188 33.671875 C 263.554688 33.671875 263.867188 33.484375 264.019531 33.332031 C 264.113281 33.238281 264.144531 33.238281 264.175781 33.238281 C 264.238281 33.238281 264.238281 33.640625 264.238281 33.796875 C 264.238281 35.605469 263.492188 37.351562 262.214844 38.660156 C 262.121094 38.722656 262.089844 38.785156 262.089844 38.910156 C 262.089844 39.0625 262.214844 39.1875 262.371094 39.1875 C 262.621094 39.1875 264.800781 37.070312 264.800781 33.796875 Z "/>
<path style=" stroke:none;fill-rule:nonzero;fill:rgb(27.843137%,45.882353%,54.901961%);fill-opacity:1;" d="M 280.308594 23.359375 C 281.710938 22.578125 283.796875 21.269531 283.796875 18.839844 C 283.796875 16.378906 281.398438 14.664062 278.78125 14.664062 C 275.949219 14.664062 273.707031 16.75 273.707031 19.335938 C 273.707031 20.304688 274.019531 21.300781 274.796875 22.265625 C 275.109375 22.640625 275.140625 22.671875 277.164062 24.074219 C 274.390625 25.351562 272.960938 27.253906 272.960938 29.339844 C 272.960938 32.394531 275.824219 34.265625 278.75 34.265625 C 281.925781 34.265625 284.574219 31.925781 284.574219 28.9375 C 284.574219 26.007812 282.519531 24.730469 280.308594 23.359375 Z M 276.417969 20.769531 C 276.042969 20.523438 274.890625 19.773438 274.890625 18.371094 C 274.890625 16.5 276.820312 15.347656 278.75 15.347656 C 280.808594 15.347656 282.644531 16.8125 282.644531 18.871094 C 282.644531 20.617188 281.367188 22.019531 279.71875 22.953125 Z M 277.753906 24.449219 L 281.210938 26.722656 C 281.957031 27.222656 283.265625 28.09375 283.265625 29.839844 C 283.265625 32.019531 281.054688 33.484375 278.78125 33.484375 C 276.355469 33.484375 274.269531 31.742188 274.269531 29.339844 C 274.269531 27.128906 275.886719 25.320312 277.753906 24.449219 Z "/>
<path style=" stroke:none;fill-rule:nonzero;fill:rgb(27.843137%,45.882353%,54.901961%);fill-opacity:1;" d="M 298.570312 24.511719 C 298.570312 22.140625 298.445312 19.835938 297.417969 17.65625 C 296.234375 15.285156 294.179688 14.664062 292.78125 14.664062 C 291.128906 14.664062 289.074219 15.472656 288.046875 17.839844 C 287.238281 19.648438 286.957031 21.425781 286.957031 24.511719 C 286.957031 27.285156 287.144531 29.371094 288.171875 31.398438 C 289.292969 33.578125 291.253906 34.265625 292.75 34.265625 C 295.238281 34.265625 296.671875 32.800781 297.480469 31.117188 C 298.507812 28.96875 298.570312 26.164062 298.570312 24.511719 Z M 292.75 33.703125 C 291.847656 33.703125 289.976562 33.175781 289.449219 30.058594 C 289.105469 28.34375 289.105469 26.164062 289.105469 24.167969 C 289.105469 21.832031 289.105469 19.710938 289.574219 18.027344 C 290.070312 16.097656 291.535156 15.222656 292.75 15.222656 C 293.839844 15.222656 295.488281 15.878906 296.050781 18.339844 C 296.390625 19.960938 296.390625 22.234375 296.390625 24.167969 C 296.390625 26.101562 296.390625 28.25 296.082031 29.996094 C 295.550781 33.144531 293.746094 33.703125 292.75 33.703125 Z "/>
<path style=" stroke:none;fill-rule:nonzero;fill:rgb(27.843137%,45.882353%,54.901961%);fill-opacity:1;" d="M 312.570312 24.511719 C 312.570312 22.140625 312.445312 19.835938 311.417969 17.65625 C 310.234375 15.285156 308.179688 14.664062 306.777344 14.664062 C 305.125 14.664062 303.070312 15.472656 302.042969 17.839844 C 301.234375 19.648438 300.953125 21.425781 300.953125 24.511719 C 300.953125 27.285156 301.140625 29.371094 302.167969 31.398438 C 303.289062 33.578125 305.25 34.265625 306.746094 34.265625 C 309.238281 34.265625 310.667969 32.800781 311.480469 31.117188 C 312.507812 28.96875 312.570312 26.164062 312.570312 24.511719 Z M 306.746094 33.703125 C 305.84375 33.703125 303.976562 33.175781 303.445312 30.058594 C 303.101562 28.34375 303.101562 26.164062 303.101562 24.167969 C 303.101562 21.832031 303.101562 19.710938 303.570312 18.027344 C 304.066406 16.097656 305.53125 15.222656 306.746094 15.222656 C 307.835938 15.222656 309.484375 15.878906 310.046875 18.339844 C 310.390625 19.960938 310.390625 22.234375 310.390625 24.167969 C 310.390625 26.101562 310.390625 28.25 310.078125 29.996094 C 309.546875 33.144531 307.742188 33.703125 306.746094 33.703125 Z "/>
<path style=" stroke:none;fill-rule:nonzero;fill:rgb(27.843137%,45.882353%,54.901961%);fill-opacity:1;" d="M 321.832031 26.535156 C 321.832031 24.386719 321.554688 20.832031 319.933594 17.5 C 318.253906 14.070312 315.917969 12.230469 315.605469 12.230469 C 315.480469 12.230469 315.324219 12.261719 315.324219 12.449219 C 315.324219 12.542969 315.324219 12.574219 315.824219 13.074219 C 318.6875 15.972656 320.277344 20.675781 320.277344 26.535156 C 320.277344 32.082031 318.9375 36.851562 315.636719 40.21875 C 315.324219 40.464844 315.324219 40.527344 315.324219 40.621094 C 315.324219 40.808594 315.480469 40.839844 315.605469 40.839844 C 315.980469 40.839844 318.3125 38.785156 319.714844 35.980469 C 321.179688 33.082031 321.832031 29.996094 321.832031 26.535156 Z "/>
<path style="fill:none;stroke-width:0.19925;stroke-linecap:butt;stroke-linejoin:miter;stroke:rgb(49.803922%,49.803922%,49.803922%);stroke-opacity:1;stroke-miterlimit:10;" d="M 27.028586 -2.125724 L 27.028586 2.124276 M 54.055655 -2.125724 L 54.055655 2.124276 M 81.082724 -2.125724 L 81.082724 2.124276 M 108.111753 -2.125724 L 108.111753 2.124276 M 135.138822 -2.125724 L 135.138822 2.124276 M 162.165891 -2.125724 L 162.165891 2.124276 M 189.19688 -2.125724 L 189.19688 2.124276 M 216.223949 -2.125724 L 216.223949 2.124276 M 243.251018 -2.125724 L 243.251018 2.124276 M 270.278086 -2.125724 L 270.278086 2.124276 M 297.307115 -2.125724 L 297.307115 2.124276 M 324.334184 -2.125724 L 324.334184 2.124276 " transform="matrix(1.992794,0,0,-1.994485,43.215726,400.400901)"/>
<path style="fill:none;stroke-width:1.19553;stroke-linecap:butt;stroke-linejoin:miter;stroke:rgb(0%,0%,0%);stroke-opacity:1;stroke-miterlimit:10;" d="M -0.59634 -0.000723502 L 334.662414 -0.000723502 " transform="matrix(1.992794,0,0,-1.994485,43.215726,400.400901)"/>
<path style=" stroke:none;fill-rule:nonzero;fill:rgb(0%,0%,0%);fill-opacity:1;" d="M 716.480469 400.402344 L 706.3125 395.3125 L 710.128906 400.402344 L 706.3125 405.488281 "/>
<path style="fill:none;stroke-width:1.19553;stroke-linecap:butt;stroke-linejoin:miter;stroke:rgb(0%,0%,0%);stroke-opacity:1;stroke-miterlimit:10;" d="M 0.00151739 -0.598074 L 0.00151739 196.468747 " transform="matrix(1.992794,0,0,-1.994485,43.215726,400.400901)"/>
<path style=" stroke:none;fill-rule:nonzero;fill:rgb(0%,0%,0%);fill-opacity:1;" d="M 43.21875 2.1875 L 38.136719 12.355469 L 43.21875 8.546875 L 48.300781 12.355469 "/>
<path style=" stroke:none;fill-rule:nonzero;fill:rgb(0%,0%,0%);fill-opacity:1;" d="M 91.175781 415.625 L 91.175781 425.660156 L 92.921875 425.660156 L 92.921875 411.574219 L 91.769531 411.574219 C 91.175781 413.722656 90.773438 414.035156 88.0625 414.378906 L 88.0625 415.625 Z "/>
<path style=" stroke:none;fill-rule:nonzero;fill:rgb(0%,0%,0%);fill-opacity:1;" d="M 102.527344 411.574219 C 101.21875 411.574219 100.035156 412.132812 99.289062 413.101562 C 98.386719 414.347656 97.917969 416.246094 97.917969 418.835938 C 97.917969 423.601562 99.507812 426.125 102.527344 426.125 C 105.515625 426.125 107.132812 423.601562 107.132812 418.957031 C 107.132812 416.214844 106.699219 414.378906 105.765625 413.101562 C 105.046875 412.132812 103.867188 411.574219 102.527344 411.574219 Z M 102.527344 413.101562 C 104.425781 413.101562 105.359375 415.03125 105.359375 418.804688 C 105.359375 422.792969 104.457031 424.660156 102.496094 424.660156 C 100.65625 424.660156 99.722656 422.730469 99.722656 418.867188 C 99.722656 415 100.65625 413.101562 102.527344 413.101562 Z "/>
<path style=" stroke:none;fill-rule:nonzero;fill:rgb(0%,0%,0%);fill-opacity:1;" d="M 149.957031 423.914062 L 142.542969 423.914062 C 142.730469 422.761719 143.355469 422.042969 145.097656 421.015625 L 147.058594 419.957031 C 149.019531 418.867188 150.050781 417.433594 150.050781 415.6875 C 150.050781 414.535156 149.582031 413.441406 148.742188 412.664062 C 147.902344 411.914062 146.871094 411.574219 145.535156 411.574219 C 143.757812 411.574219 142.421875 412.195312 141.640625 413.378906 C 141.144531 414.160156 140.925781 415.03125 140.894531 416.464844 L 142.636719 416.464844 C 142.699219 415.5 142.824219 414.90625 143.042969 414.472656 C 143.511719 413.597656 144.414062 413.101562 145.472656 413.101562 C 147.058594 413.101562 148.273438 414.222656 148.273438 415.75 C 148.273438 416.839844 147.621094 417.804688 146.34375 418.523438 L 144.539062 419.550781 C 141.578125 421.234375 140.738281 422.542969 140.582031 425.660156 L 149.957031 425.660156 Z "/>
<path style=" stroke:none;fill-rule:nonzero;fill:rgb(0%,0%,0%);fill-opacity:1;" d="M 156.386719 411.574219 C 155.078125 411.574219 153.894531 412.132812 153.148438 413.101562 C 152.246094 414.347656 151.777344 416.246094 151.777344 418.835938 C 151.777344 423.601562 153.367188 426.125 156.386719 426.125 C 159.375 426.125 160.992188 423.601562 160.992188 418.957031 C 160.992188 416.214844 160.558594 414.378906 159.625 413.101562 C 158.90625 412.132812 157.722656 411.574219 156.386719 411.574219 Z M 156.386719 413.101562 C 158.285156 413.101562 159.21875 415.03125 159.21875 418.804688 C 159.21875 422.792969 158.316406 424.660156 156.355469 424.660156 C 154.515625 424.660156 153.582031 422.730469 153.582031 418.867188 C 153.582031 415 154.515625 413.101562 156.386719 413.101562 Z "/>
<path style=" stroke:none;fill-rule:nonzero;fill:rgb(0%,0%,0%);fill-opacity:1;" d="M 198.148438 419.207031 L 198.367188 419.207031 L 199.113281 419.175781 C 201.046875 419.175781 202.011719 420.050781 202.011719 421.730469 C 202.011719 423.507812 200.921875 424.566406 199.113281 424.566406 C 197.183594 424.566406 196.25 423.601562 196.15625 421.578125 L 194.382812 421.578125 C 194.476562 422.699219 194.664062 423.445312 195.003906 424.070312 C 195.722656 425.410156 197.121094 426.125 199.050781 426.125 C 201.949219 426.125 203.816406 424.382812 203.816406 421.730469 C 203.816406 419.925781 203.101562 418.925781 201.417969 418.367188 C 202.726562 417.835938 203.378906 416.839844 203.378906 415.4375 C 203.378906 413.007812 201.792969 411.574219 199.113281 411.574219 C 196.25 411.574219 194.753906 413.101562 194.695312 416.121094 L 196.4375 416.121094 C 196.46875 415.25 196.53125 414.78125 196.75 414.347656 C 197.152344 413.566406 198.023438 413.101562 199.113281 413.101562 C 200.671875 413.101562 201.605469 414.003906 201.605469 415.5 C 201.605469 416.496094 201.261719 417.089844 200.484375 417.402344 C 199.988281 417.617188 199.394531 417.679688 198.148438 417.710938 Z "/>
<path style=" stroke:none;fill-rule:nonzero;fill:rgb(0%,0%,0%);fill-opacity:1;" d="M 210.246094 411.574219 C 208.9375 411.574219 207.757812 412.132812 207.007812 413.101562 C 206.105469 414.347656 205.636719 416.246094 205.636719 418.835938 C 205.636719 423.601562 207.226562 426.125 210.246094 426.125 C 213.234375 426.125 214.855469 423.601562 214.855469 418.957031 C 214.855469 416.214844 214.417969 414.378906 213.484375 413.101562 C 212.769531 412.132812 211.585938 411.574219 210.246094 411.574219 Z M 210.246094 413.101562 C 212.144531 413.101562 213.082031 415.03125 213.082031 418.804688 C 213.082031 422.792969 212.175781 424.660156 210.214844 424.660156 C 208.378906 424.660156 207.445312 422.730469 207.445312 418.867188 C 207.445312 415 208.378906 413.101562 210.246094 413.101562 Z "/>
<path style=" stroke:none;fill-rule:nonzero;fill:rgb(0%,0%,0%);fill-opacity:1;" d="M 254.125 422.292969 L 254.125 425.660156 L 255.871094 425.660156 L 255.871094 422.292969 L 257.957031 422.292969 L 257.957031 420.703125 L 255.871094 420.703125 L 255.871094 411.574219 L 254.5625 411.574219 L 248.179688 420.421875 L 248.179688 422.292969 Z M 254.125 420.703125 L 249.703125 420.703125 L 254.125 414.535156 Z "/>
<path style=" stroke:none;fill-rule:nonzero;fill:rgb(0%,0%,0%);fill-opacity:1;" d="M 264.105469 411.574219 C 262.796875 411.574219 261.613281 412.132812 260.867188 413.101562 C 259.964844 414.347656 259.496094 416.246094 259.496094 418.835938 C 259.496094 423.601562 261.085938 426.125 264.105469 426.125 C 267.09375 426.125 268.714844 423.601562 268.714844 418.957031 C 268.714844 416.214844 268.277344 414.378906 267.34375 413.101562 C 266.628906 412.132812 265.445312 411.574219 264.105469 411.574219 Z M 264.105469 413.101562 C 266.003906 413.101562 266.941406 415.03125 266.941406 418.804688 C 266.941406 422.792969 266.035156 424.660156 264.074219 424.660156 C 262.238281 424.660156 261.304688 422.730469 261.304688 418.867188 C 261.304688 415 262.238281 413.101562 264.105469 413.101562 Z "/>
<path style=" stroke:none;fill-rule:nonzero;fill:rgb(0%,0%,0%);fill-opacity:1;" d="M 310.945312 411.574219 L 303.660156 411.574219 L 302.601562 419.238281 L 304.21875 419.238281 C 305.03125 418.273438 305.714844 417.929688 306.804688 417.929688 C 308.703125 417.929688 309.886719 419.207031 309.886719 421.296875 C 309.886719 423.320312 308.703125 424.566406 306.804688 424.566406 C 305.277344 424.566406 304.34375 423.789062 303.910156 422.199219 L 302.164062 422.199219 C 302.414062 423.351562 302.601562 423.914062 303.035156 424.414062 C 303.816406 425.503906 305.246094 426.125 306.835938 426.125 C 309.667969 426.125 311.660156 424.039062 311.660156 421.078125 C 311.660156 418.273438 309.824219 416.371094 307.117188 416.371094 C 306.121094 416.371094 305.339844 416.621094 304.53125 417.214844 L 305.0625 413.285156 L 310.945312 413.285156 Z "/>
<path style=" stroke:none;fill-rule:nonzero;fill:rgb(0%,0%,0%);fill-opacity:1;" d="M 317.96875 411.574219 C 316.660156 411.574219 315.476562 412.132812 314.730469 413.101562 C 313.824219 414.347656 313.359375 416.246094 313.359375 418.835938 C 313.359375 423.601562 314.945312 426.125 317.96875 426.125 C 320.957031 426.125 322.574219 423.601562 322.574219 418.957031 C 322.574219 416.214844 322.140625 414.378906 321.207031 413.101562 C 320.488281 412.132812 319.304688 411.574219 317.96875 411.574219 Z M 317.96875 413.101562 C 319.867188 413.101562 320.800781 415.03125 320.800781 418.804688 C 320.800781 422.792969 319.898438 424.660156 317.9375 424.660156 C 316.097656 424.660156 315.164062 422.730469 315.164062 418.867188 C 315.164062 415 316.097656 413.101562 317.96875 413.101562 Z "/>
<path style=" stroke:none;fill-rule:nonzero;fill:rgb(0%,0%,0%);fill-opacity:1;" d="M 365.242188 415.25 C 364.898438 412.945312 363.375 411.574219 361.226562 411.574219 C 359.699219 411.574219 358.300781 412.320312 357.457031 413.566406 C 356.585938 414.9375 356.183594 416.683594 356.183594 419.238281 C 356.183594 421.609375 356.554688 423.105469 357.394531 424.382812 C 358.144531 425.503906 359.390625 426.125 360.914062 426.125 C 363.59375 426.125 365.523438 424.132812 365.523438 421.359375 C 365.523438 418.742188 363.75 416.902344 361.226562 416.902344 C 359.824219 416.902344 358.734375 417.433594 357.988281 418.460938 C 357.988281 415.03125 359.109375 413.101562 361.132812 413.101562 C 362.347656 413.101562 363.21875 413.878906 363.5 415.25 Z M 361.007812 418.429688 C 362.691406 418.429688 363.75 419.613281 363.75 421.515625 C 363.75 423.257812 362.566406 424.566406 360.945312 424.566406 C 359.328125 424.566406 358.082031 423.226562 358.082031 421.390625 C 358.082031 419.644531 359.265625 418.429688 361.007812 418.429688 Z "/>
<path style=" stroke:none;fill-rule:nonzero;fill:rgb(0%,0%,0%);fill-opacity:1;" d="M 371.828125 411.574219 C 370.519531 411.574219 369.335938 412.132812 368.589844 413.101562 C 367.6875 414.347656 367.21875 416.246094 367.21875 418.835938 C 367.21875 423.601562 368.808594 426.125 371.828125 426.125 C 374.816406 426.125 376.4375 423.601562 376.4375 418.957031 C 376.4375 416.214844 376 414.378906 375.066406 413.101562 C 374.351562 412.132812 373.167969 411.574219 371.828125 411.574219 Z M 371.828125 413.101562 C 373.726562 413.101562 374.660156 415.03125 374.660156 418.804688 C 374.660156 422.792969 373.757812 424.660156 371.796875 424.660156 C 369.960938 424.660156 369.027344 422.730469 369.027344 418.867188 C 369.027344 415 369.960938 413.101562 371.828125 413.101562 Z "/>
<path style=" stroke:none;fill-rule:nonzero;fill:rgb(0%,0%,0%);fill-opacity:1;" d="M 419.539062 411.574219 L 410.101562 411.574219 L 410.101562 413.285156 L 417.730469 413.285156 C 414.367188 418.085938 413 421.015625 411.941406 425.660156 L 413.808594 425.660156 C 414.585938 421.140625 416.363281 417.277344 419.539062 413.039062 Z "/>
<path style=" stroke:none;fill-rule:nonzero;fill:rgb(0%,0%,0%);fill-opacity:1;" d="M 425.6875 411.574219 C 424.378906 411.574219 423.195312 412.132812 422.449219 413.101562 C 421.546875 414.347656 421.078125 416.246094 421.078125 418.835938 C 421.078125 423.601562 422.667969 426.125 425.6875 426.125 C 428.675781 426.125 430.296875 423.601562 430.296875 418.957031 C 430.296875 416.214844 429.859375 414.378906 428.925781 413.101562 C 428.210938 412.132812 427.027344 411.574219 425.6875 411.574219 Z M 425.6875 413.101562 C 427.585938 413.101562 428.519531 415.03125 428.519531 418.804688 C 428.519531 422.792969 427.617188 424.660156 425.65625 424.660156 C 423.820312 424.660156 422.886719 422.730469 422.886719 418.867188 C 422.886719 415 423.820312 413.101562 425.6875 413.101562 Z "/>
<path style=" stroke:none;fill-rule:nonzero;fill:rgb(0%,0%,0%);fill-opacity:1;" d="M 470.816406 418.242188 C 472.277344 417.371094 472.746094 416.652344 472.746094 415.3125 C 472.746094 413.101562 471.03125 411.574219 468.511719 411.574219 C 466.050781 411.574219 464.308594 413.101562 464.308594 415.3125 C 464.308594 416.621094 464.773438 417.339844 466.207031 418.242188 C 464.585938 419.019531 463.808594 420.207031 463.808594 421.730469 C 463.808594 424.320312 465.738281 426.125 468.511719 426.125 C 471.3125 426.125 473.242188 424.320312 473.242188 421.761719 C 473.242188 420.207031 472.464844 419.019531 470.816406 418.242188 Z M 468.511719 413.101562 C 470.003906 413.101562 470.96875 413.972656 470.96875 415.375 C 470.96875 416.683594 470.003906 417.554688 468.511719 417.554688 C 467.046875 417.554688 466.082031 416.683594 466.082031 415.34375 C 466.082031 413.972656 467.046875 413.101562 468.511719 413.101562 Z M 468.511719 419.019531 C 470.285156 419.019531 471.46875 420.144531 471.46875 421.792969 C 471.46875 423.445312 470.285156 424.566406 468.480469 424.566406 C 466.765625 424.566406 465.582031 423.445312 465.582031 421.792969 C 465.582031 420.144531 466.765625 419.019531 468.511719 419.019531 Z "/>
<path style=" stroke:none;fill-rule:nonzero;fill:rgb(0%,0%,0%);fill-opacity:1;" d="M 479.550781 411.574219 C 478.242188 411.574219 477.058594 412.132812 476.3125 413.101562 C 475.40625 414.347656 474.941406 416.246094 474.941406 418.835938 C 474.941406 423.601562 476.527344 426.125 479.550781 426.125 C 482.539062 426.125 484.15625 423.601562 484.15625 418.957031 C 484.15625 416.214844 483.722656 414.378906 482.789062 413.101562 C 482.070312 412.132812 480.886719 411.574219 479.550781 411.574219 Z M 479.550781 413.101562 C 481.449219 413.101562 482.382812 415.03125 482.382812 418.804688 C 482.382812 422.792969 481.480469 424.660156 479.519531 424.660156 C 477.679688 424.660156 476.746094 422.730469 476.746094 418.867188 C 476.746094 415 477.679688 413.101562 479.550781 413.101562 Z "/>
<path style=" stroke:none;fill-rule:nonzero;fill:rgb(0%,0%,0%);fill-opacity:1;" d="M 517.980469 422.449219 C 518.320312 424.753906 519.816406 426.125 521.964844 426.125 C 523.523438 426.125 524.921875 425.347656 525.734375 424.101562 C 526.636719 422.730469 527.039062 421.015625 527.039062 418.429688 C 527.039062 416.0625 526.667969 414.566406 525.824219 413.316406 C 525.078125 412.164062 523.832031 411.574219 522.277344 411.574219 C 519.597656 411.574219 517.667969 413.535156 517.667969 416.308594 C 517.667969 418.925781 519.472656 420.796875 521.996094 420.796875 C 523.335938 420.796875 524.300781 420.300781 525.234375 419.207031 C 525.203125 422.667969 524.082031 424.566406 522.089844 424.566406 C 520.84375 424.566406 520.003906 423.789062 519.722656 422.449219 Z M 522.277344 413.101562 C 523.894531 413.101562 525.109375 414.441406 525.109375 416.277344 C 525.109375 417.992188 523.925781 419.238281 522.214844 419.238281 C 520.5 419.238281 519.472656 418.054688 519.472656 416.183594 C 519.472656 414.378906 520.65625 413.101562 522.277344 413.101562 Z "/>
<path style=" stroke:none;fill-rule:nonzero;fill:rgb(0%,0%,0%);fill-opacity:1;" d="M 533.410156 411.574219 C 532.101562 411.574219 530.917969 412.132812 530.171875 413.101562 C 529.265625 414.347656 528.800781 416.246094 528.800781 418.835938 C 528.800781 423.601562 530.386719 426.125 533.410156 426.125 C 536.398438 426.125 538.015625 423.601562 538.015625 418.957031 C 538.015625 416.214844 537.582031 414.378906 536.648438 413.101562 C 535.929688 412.132812 534.746094 411.574219 533.410156 411.574219 Z M 533.410156 413.101562 C 535.308594 413.101562 536.242188 415.03125 536.242188 418.804688 C 536.242188 422.792969 535.339844 424.660156 533.378906 424.660156 C 531.539062 424.660156 530.605469 422.730469 530.605469 418.867188 C 530.605469 415 531.539062 413.101562 533.410156 413.101562 Z "/>
<path style=" stroke:none;fill-rule:nonzero;fill:rgb(0%,0%,0%);fill-opacity:1;" d="M 570.398438 415.625 L 570.398438 425.660156 L 572.144531 425.660156 L 572.144531 411.574219 L 570.992188 411.574219 C 570.398438 413.722656 569.996094 414.035156 567.285156 414.378906 L 567.285156 415.625 Z "/>
<path style=" stroke:none;fill-rule:nonzero;fill:rgb(0%,0%,0%);fill-opacity:1;" d="M 581.75 411.574219 C 580.441406 411.574219 579.257812 412.132812 578.511719 413.101562 C 577.609375 414.347656 577.140625 416.246094 577.140625 418.835938 C 577.140625 423.601562 578.730469 426.125 581.75 426.125 C 584.738281 426.125 586.359375 423.601562 586.359375 418.957031 C 586.359375 416.214844 585.921875 414.378906 584.988281 413.101562 C 584.273438 412.132812 583.089844 411.574219 581.75 411.574219 Z M 581.75 413.101562 C 583.648438 413.101562 584.582031 415.03125 584.582031 418.804688 C 584.582031 422.792969 583.679688 424.660156 581.71875 424.660156 C 579.882812 424.660156 578.945312 422.730469 578.945312 418.867188 C 578.945312 415 579.882812 413.101562 581.75 413.101562 Z "/>
<path style=" stroke:none;fill-rule:nonzero;fill:rgb(0%,0%,0%);fill-opacity:1;" d="M 592.789062 411.574219 C 591.480469 411.574219 590.296875 412.132812 589.550781 413.101562 C 588.648438 414.347656 588.179688 416.246094 588.179688 418.835938 C 588.179688 423.601562 589.769531 426.125 592.789062 426.125 C 595.777344 426.125 597.394531 423.601562 597.394531 418.957031 C 597.394531 416.214844 596.960938 414.378906 596.027344 413.101562 C 595.308594 412.132812 594.125 411.574219 592.789062 411.574219 Z M 592.789062 413.101562 C 594.6875 413.101562 595.621094 415.03125 595.621094 418.804688 C 595.621094 422.792969 594.71875 424.660156 592.757812 424.660156 C 590.917969 424.660156 589.984375 422.730469 589.984375 418.867188 C 589.984375 415 590.917969 413.101562 592.789062 413.101562 Z "/>
<path style=" stroke:none;fill-rule:nonzero;fill:rgb(0%,0%,0%);fill-opacity:1;" d="M 624.261719 415.625 L 624.261719 425.660156 L 626.003906 425.660156 L 626.003906 411.574219 L 624.851562 411.574219 C 624.261719 413.722656 623.855469 414.035156 621.148438 414.378906 L 621.148438 415.625 Z "/>
<path style=" stroke:none;fill-rule:nonzero;fill:rgb(0%,0%,0%);fill-opacity:1;" d="M 635.300781 415.625 L 635.300781 425.660156 L 637.042969 425.660156 L 637.042969 411.574219 L 635.890625 411.574219 C 635.300781 413.722656 634.894531 414.035156 632.1875 414.378906 L 632.1875 415.625 Z "/>
<path style=" stroke:none;fill-rule:nonzero;fill:rgb(0%,0%,0%);fill-opacity:1;" d="M 646.648438 411.574219 C 645.339844 411.574219 644.15625 412.132812 643.410156 413.101562 C 642.507812 414.347656 642.039062 416.246094 642.039062 418.835938 C 642.039062 423.601562 643.628906 426.125 646.648438 426.125 C 649.636719 426.125 651.257812 423.601562 651.257812 418.957031 C 651.257812 416.214844 650.820312 414.378906 649.886719 413.101562 C 649.171875 412.132812 647.988281 411.574219 646.648438 411.574219 Z M 646.648438 413.101562 C 648.546875 413.101562 649.484375 415.03125 649.484375 418.804688 C 649.484375 422.792969 648.578125 424.660156 646.617188 424.660156 C 644.78125 424.660156 643.847656 422.730469 643.847656 418.867188 C 643.847656 415 644.78125 413.101562 646.648438 413.101562 Z "/>
<path style=" stroke:none;fill-rule:nonzero;fill:rgb(0%,0%,0%);fill-opacity:1;" d="M 678.121094 415.625 L 678.121094 425.660156 L 679.863281 425.660156 L 679.863281 411.574219 L 678.710938 411.574219 C 678.121094 413.722656 677.714844 414.035156 675.007812 414.378906 L 675.007812 415.625 Z "/>
<path style=" stroke:none;fill-rule:nonzero;fill:rgb(0%,0%,0%);fill-opacity:1;" d="M 694.078125 423.914062 L 686.667969 423.914062 C 686.855469 422.761719 687.476562 422.042969 689.222656 421.015625 L 691.183594 419.957031 C 693.144531 418.867188 694.171875 417.433594 694.171875 415.6875 C 694.171875 414.535156 693.703125 413.441406 692.863281 412.664062 C 692.023438 411.914062 690.996094 411.574219 689.65625 411.574219 C 687.882812 411.574219 686.542969 412.195312 685.765625 413.378906 C 685.265625 414.160156 685.046875 415.03125 685.015625 416.464844 L 686.761719 416.464844 C 686.824219 415.5 686.949219 414.90625 687.164062 414.472656 C 687.632812 413.597656 688.535156 413.101562 689.59375 413.101562 C 691.183594 413.101562 692.398438 414.222656 692.398438 415.75 C 692.398438 416.839844 691.742188 417.804688 690.464844 418.523438 L 688.660156 419.550781 C 685.703125 421.234375 684.863281 422.542969 684.707031 425.660156 L 694.078125 425.660156 Z "/>
<path style=" stroke:none;fill-rule:nonzero;fill:rgb(0%,0%,0%);fill-opacity:1;" d="M 700.507812 411.574219 C 699.199219 411.574219 698.015625 412.132812 697.269531 413.101562 C 696.367188 414.347656 695.898438 416.246094 695.898438 418.835938 C 695.898438 423.601562 697.488281 426.125 700.507812 426.125 C 703.496094 426.125 705.117188 423.601562 705.117188 418.957031 C 705.117188 416.214844 704.679688 414.378906 703.746094 413.101562 C 703.03125 412.132812 701.847656 411.574219 700.507812 411.574219 Z M 700.507812 413.101562 C 702.40625 413.101562 703.34375 415.03125 703.34375 418.804688 C 703.34375 422.792969 702.4375 424.660156 700.476562 424.660156 C 698.640625 424.660156 697.707031 422.730469 697.707031 418.867188 C 697.707031 415 698.640625 413.101562 700.507812 413.101562 Z "/>
<path style=" stroke:none;fill-rule:nonzero;fill:rgb(0%,0%,0%);fill-opacity:1;" d="M 399.210938 408.671875 C 398.183594 408.949219 397.65625 409.917969 397.65625 410.632812 C 397.65625 411.257812 398.152344 411.941406 399.085938 411.941406 C 400.113281 411.941406 401.140625 411.132812 401.140625 409.730469 C 401.140625 408.203125 399.648438 407.207031 397.902344 407.207031 C 396.253906 407.207031 395.226562 408.453125 394.851562 408.949219 C 394.136719 407.765625 392.515625 407.207031 390.898438 407.207031 C 387.285156 407.207031 385.355469 410.726562 385.355469 411.660156 C 385.355469 412.066406 385.792969 412.066406 386.039062 412.066406 C 386.382812 412.066406 386.570312 412.066406 386.695312 411.691406 C 387.535156 409.105469 389.589844 408.234375 390.742188 408.234375 C 391.832031 408.234375 392.359375 408.761719 392.359375 409.667969 C 392.359375 410.195312 391.957031 411.785156 391.707031 412.816406 L 390.710938 416.742188 C 390.304688 418.488281 389.277344 419.328125 388.28125 419.328125 C 388.15625 419.328125 387.503906 419.328125 386.914062 418.921875 C 387.941406 418.609375 388.46875 417.644531 388.46875 416.929688 C 388.46875 416.304688 387.972656 415.621094 387.035156 415.621094 C 386.039062 415.621094 384.980469 416.460938 384.980469 417.863281 C 384.980469 419.359375 386.507812 420.355469 388.25 420.355469 C 389.871094 420.355469 390.929688 419.140625 391.300781 418.609375 C 392.019531 419.828125 393.605469 420.355469 395.226562 420.355469 C 398.835938 420.355469 400.800781 416.835938 400.800781 415.898438 C 400.800781 415.496094 400.363281 415.496094 400.113281 415.496094 C 399.742188 415.496094 399.554688 415.496094 399.429688 415.867188 C 398.621094 418.488281 396.566406 419.328125 395.382812 419.328125 C 394.292969 419.328125 393.792969 418.828125 393.792969 417.894531 C 393.792969 417.300781 394.167969 415.773438 394.417969 414.714844 C 394.601562 414 395.257812 411.289062 395.414062 410.851562 C 395.847656 409.136719 396.84375 408.234375 397.839844 408.234375 C 397.996094 408.234375 398.652344 408.234375 399.210938 408.671875 Z "/>
<path style=" stroke:none;fill-rule:nonzero;fill:rgb(0%,0%,0%);fill-opacity:1;" d="M 17.722656 220.667969 L 17.722656 217.335938 C 17.722656 216.773438 17.722656 216.273438 16.878906 216.273438 C 16.351562 216.273438 16.351562 216.742188 16.351562 217.242188 L 16.351562 220.453125 L 11.183594 219.515625 C 10.683594 219.421875 10.621094 219.421875 10.371094 219.140625 C 10.03125 218.769531 10.03125 218.457031 10.03125 218.300781 C 10.03125 217.894531 10.0625 217.644531 10.21875 217.304688 C 10.558594 217.988281 11.304688 218.488281 12.085938 218.488281 C 12.925781 218.488281 13.394531 217.800781 13.394531 217.085938 C 13.394531 215.933594 12.367188 215.027344 11.277344 215.027344 C 9.8125 215.027344 9.003906 216.523438 9.003906 218.300781 C 9.003906 219.640625 9.53125 221.261719 11.121094 222.257812 C 12.179688 222.914062 13.300781 223.070312 16.351562 223.628906 L 16.351562 226.433594 C 16.351562 226.964844 16.351562 227.464844 17.191406 227.464844 C 17.722656 227.464844 17.722656 226.964844 17.722656 226.496094 L 17.722656 223.878906 L 29.894531 226.0625 C 30.144531 226.121094 31.949219 226.433594 32.355469 226.558594 C 32.480469 226.621094 33.789062 227.089844 33.789062 227.992188 C 33.789062 228.554688 33.726562 228.773438 33.632812 228.957031 C 33.289062 228.242188 32.542969 227.710938 31.734375 227.710938 C 30.890625 227.710938 30.425781 228.398438 30.425781 229.113281 C 30.425781 230.300781 31.453125 231.171875 32.542969 231.171875 C 34.097656 231.171875 34.816406 229.550781 34.816406 228.054688 C 34.816406 225.90625 32.730469 224.410156 32.355469 224.191406 C 30.457031 222.976562 26.8125 222.320312 26.347656 222.226562 Z "/>
<path style=" stroke:none;fill-rule:nonzero;fill:rgb(0%,0%,0%);fill-opacity:1;" d="M 35.875 202.84375 C 35.78125 202.84375 35.71875 202.84375 35.1875 203.375 C 32.011719 206.585938 26.96875 207.800781 21.925781 207.800781 C 16.320312 207.800781 11.679688 206.398438 8.441406 203.21875 C 8.097656 202.875 8.066406 202.84375 7.976562 202.84375 C 7.632812 202.84375 7.632812 203.1875 7.632812 203.3125 C 7.632812 203.59375 7.632812 203.625 8.222656 204.371094 C 11.492188 208.484375 16.753906 210.449219 21.925781 210.449219 C 27.15625 210.449219 32.292969 208.484375 35.59375 204.402344 C 36.214844 203.65625 36.214844 203.59375 36.214844 203.3125 C 36.214844 203.1875 36.214844 202.84375 35.875 202.84375 Z "/>
<path style=" stroke:none;fill-rule:nonzero;fill:rgb(0%,0%,0%);fill-opacity:1;" d="M 17.597656 185.683594 C 17.875 186.710938 18.84375 187.242188 19.558594 187.242188 C 20.179688 187.242188 20.867188 186.742188 20.867188 185.808594 C 20.867188 184.78125 20.054688 183.75 18.65625 183.75 C 17.128906 183.75 16.132812 185.246094 16.132812 186.992188 C 16.132812 188.644531 17.378906 189.671875 17.875 190.046875 C 16.695312 190.761719 16.132812 192.382812 16.132812 194.003906 C 16.132812 197.621094 19.652344 199.550781 20.585938 199.550781 C 20.992188 199.550781 20.992188 199.113281 20.992188 198.867188 C 20.992188 198.523438 20.992188 198.335938 20.617188 198.210938 C 18.03125 197.371094 17.160156 195.3125 17.160156 194.160156 C 17.160156 193.070312 17.691406 192.539062 18.59375 192.539062 C 19.121094 192.539062 20.710938 192.945312 21.738281 193.195312 L 25.660156 194.191406 C 27.40625 194.597656 28.246094 195.625 28.246094 196.621094 C 28.246094 196.746094 28.246094 197.402344 27.839844 197.992188 C 27.527344 196.964844 26.5625 196.433594 25.847656 196.433594 C 25.226562 196.433594 24.539062 196.933594 24.539062 197.867188 C 24.539062 198.867188 25.378906 199.925781 26.78125 199.925781 C 28.277344 199.925781 29.273438 198.398438 29.273438 196.652344 C 29.273438 195.03125 28.058594 193.972656 27.527344 193.597656 C 28.742188 192.882812 29.273438 191.292969 29.273438 189.671875 C 29.273438 186.058594 25.753906 184.09375 24.820312 184.09375 C 24.414062 184.09375 24.414062 184.53125 24.414062 184.78125 C 24.414062 185.152344 24.414062 185.339844 24.789062 185.464844 C 27.40625 186.277344 28.246094 188.332031 28.246094 189.515625 C 28.246094 190.609375 27.746094 191.105469 26.8125 191.105469 C 26.222656 191.105469 24.695312 190.730469 23.636719 190.484375 C 22.921875 190.296875 20.210938 189.640625 19.777344 189.484375 C 18.0625 189.050781 17.160156 188.050781 17.160156 187.054688 C 17.160156 186.898438 17.160156 186.246094 17.597656 185.683594 Z "/>
<path style=" stroke:none;fill-rule:nonzero;fill:rgb(0%,0%,0%);fill-opacity:1;" d="M 21.925781 172.777344 C 16.695312 172.777344 11.554688 174.742188 8.253906 178.824219 C 7.632812 179.539062 7.632812 179.601562 7.632812 179.882812 C 7.632812 180.039062 7.632812 180.382812 7.976562 180.382812 C 8.066406 180.382812 8.128906 180.382812 8.660156 179.851562 C 11.835938 176.640625 16.878906 175.394531 21.925781 175.394531 C 27.527344 175.394531 32.167969 176.796875 35.40625 180.007812 C 35.75 180.351562 35.78125 180.382812 35.875 180.382812 C 36.214844 180.382812 36.214844 180.039062 36.214844 179.882812 C 36.214844 179.632812 36.214844 179.570312 35.625 178.855469 C 32.355469 174.710938 27.09375 172.777344 21.925781 172.777344 Z "/>
</g>
</svg>
